# xmcd CD database file
#
# Track frame offsets:
#	150
#	19351
#	36093
#	53260
#	73088
#	92304
#	112846
#	132312
#	149316
#	169197
#	185321
#
# Disc length: 2768 seconds
#
# Revision: 1
# Processed by: cddbd v1.5.2PL0 Copyright (c) Steve Scherf et al.
# Submitted via: CDex 1.51
#
DISCID=8a0ace0b
DTITLE=ORLINSKI - Dangerous Times
DYEAR=2009
DGENRE=New Age
TTITLE0=ORLINSKI - I See A Girl
TTITLE1=ORLINSKI - Man And Woman
TTITLE2=ORLINSKI - When We Were Kings Mixed
TTITLE3=ORLINSKI - Candyboy
TTITLE4=ORLINSKI - Tears About You
TTITLE5=ORLINSKI - Tonight
TTITLE6=ORLINSKI - Highway To You
TTITLE7=ORLINSKI - Kim
TTITLE8=ORLINSKI - Forever And A Day
TTITLE9=ORLINSKI - Rescue Me
TTITLE10=ORLINSKI - Come On
EXTD=YEAR: 2009
EXTT0=
EXTT1=
EXTT2=
EXTT3=
EXTT4=
EXTT5=
EXTT6=
EXTT7=
EXTT8=
EXTT9=
EXTT10=
PLAYORDER=
